# xmcd CD database file generated by OrangeCD 4.3
#
# Track frame offsets:
#	150
#	14700
#	26287
#	38212
#	54375
#	68250
#	77025
#	98812
#	113400
#	131362
#	138037
#	152475
#	168487
#	187275
#
# Disc length: 2721 seconds
#
# Revision: 0
# Processed by: cddbd v1.4PL0 Copyright (c) Steve Scherf et al.
# Submitted via: OrangeCD 4.3
#
DISCID=a60a9f0e
DTITLE=Alan Munde and Joe Carr - Welcome to West Texas
DYEAR=1900
DGENRE=Bluegrass
TTITLE0=Oklahoma Flats
TTITLE1=Yellow Rose
TTITLE2=Used to Be
TTITLE3=Keep a Light on in the Window
TTITLE4=Wildflower Moon
TTITLE5=Jenny's Desire
TTITLE6=San Jacinto Farewell
TTITLE7=When the Cottonwoods Are Yellow
TTITLE8=Dust, Drought and Depression
TTITLE9=Border Baby Boogie Polka
TTITLE10=Trial of the Century
TTITLE11=Dos Corazones
TTITLE12=Please Play the Tennessee Waltz/Tennessee Waltz
TTITLE13=Welcome to West Texas
EXTD=
EXTT0=
EXTT1=
EXTT2=
EXTT3=
EXTT4=
EXTT5=
EXTT6=
EXTT7=
EXTT8=
EXTT9=
EXTT10=
EXTT11=
EXTT12=
EXTT13=
PLAYORDER=
